# Created by Open3D 
# object name: bottom_watertight_tiny_part0
# number of vertices: 63
# number of triangles: 122
v 0.189816 0.0287796 0.176167 0.376799 0.103333 0.147195
vn 0.196373 -0.980523 0.00356321
v 0.186153 0.0456727 0.17735 0.376799 0.103333 0.147195
vn 0.302988 0.927027 0.22095
v 0.180015 0.0278018 0.183105 0.376799 0.103333 0.147195
vn 0.273504 -0.0319875 0.961339
v 0.164934 0.0248538 0.183521 0.376799 0.103333 0.147195
vn 0.041971 -0.119042 0.992002
v 0.142955 0.0209376 0.183873 0.376799 0.103333 0.147195
vn 0.168809 -0.955603 0.241509
v 0.124561 0.0177729 0.183713 0.376799 0.103333 0.147195
vn 0.165747 -0.986082 0.0130294
v 0.0641383 0.00719003 0.146017 0.376799 0.103333 0.147195
vn 0.166475 -0.986038 0.00380051
v 0.025071 0.000128376 -0.0361298 0.376799 0.103333 0.147195
vn 0.163296 -0.986574 -0.0022559
v 0.180191 0.0276187 0.00166163 0.376799 0.103333 0.147195
vn 0.176863 -0.984225 -0.00445019
v 0.188705 0.0289916 0.0861328 0.376799 0.103333 0.147195
vn 0.23066 -0.973019 -0.00538986
v 0.189056 0.0289771 0.105796 0.376799 0.103333 0.147195
vn 0.297629 -0.954663 -0.00591881
v 0.189738 0.0289627 0.142724 0.376799 0.103333 0.147195
vn 0.987332 0.158108 -0.0133358
v 0.186737 0.045822 0.14298 0.376799 0.103333 0.147195
vn 0.00249209 0.999996 0.00110658
v 0.147729 0.039218 0.182146 0.376799 0.103333 0.147195
vn -0.165796 0.986154 0.0034296
v 0.175358 0.0432064 0.181858 0.376799 0.103333 0.147195
vn 0.107797 0.481429 0.869831
v 0.161368 0.039955 0.183713 0.376799 0.103333 0.147195
vn 0.0201691 0.0206324 0.999584
v 0.0352226 0.0035725 0.186047 0.376799 0.103333 0.147195
vn 0.0532948 -0.304556 0.951002
v 0.0813824 0.0106438 0.184512 0.376799 0.103333 0.147195
vn 0.158128 -0.985935 0.0541021
v 0.0457445 0.00442028 0.166991 0.376799 0.103333 0.147195
vn 0.154419 -0.987942 0.0112102
v -0.00292888 -0.00311343 0.0978027 0.376799 0.103333 0.147195
vn 0.0113291 -0.999924 0.0048852
v -0.00489686 -0.003388 0.0169764 0.376799 0.103333 0.147195
vn 0.0775123 -0.996991 -0.000616219
v -0.00487738 -0.00311825 -0.0757756 0.376799 0.103333 0.147195
vn 0.109837 -0.993933 -0.00572372
v -0.00659205 -0.00271844 -0.131823 0.376799 0.103333 0.147195
vn 0.0747254 -0.994494 -0.0734676
v 0.0692823 0.00840872 -0.10762 0.376799 0.103333 0.147195
vn 0.1713 -0.985128 -0.0133879
v 0.00558604 -0.00195255 0.141285 0.376799 0.103333 0.147195
vn 0.145541 -0.989338 0.00533952
v 0.185276 0.0290927 -0.0767348 0.376799 0.103333 0.147195
vn 0.182796 -0.983123 -0.00742153
v 0.186562 0.0294588 -0.0559847 0.376799 0.103333 0.147195
vn 0.904368 -0.426379 -0.0178633
v 0.185861 0.0308027 -0.0868061 0.376799 0.103333 0.147195
vn 0.985678 0.167877 -0.0159955
v 0.186114 0.0455667 0.087092 0.376799 0.103333 0.147195
vn 0.984523 0.174596 -0.0151688
v 0.183425 0.0455089 -0.0765749 0.376799 0.103333 0.147195
vn 0.970643 0.239727 -0.0195895
v 0.181671 0.0453403 -0.134765 0.376799 0.103333 0.147195
vn -0.150716 0.988558 -0.00618559
v -0.00417592 0.0136833 0.159829 0.376799 0.103333 0.147195
vn -0.168245 0.985745 0.000244695
v 0.00581985 0.0153018 0.186366 0.376799 0.103333 0.147195
vn -0.147672 0.760833 0.631923
v 0.134985 0.036453 0.184 0.376799 0.103333 0.147195
vn -0.112586 0.782885 0.611895
v 0.00240999 -0.00160573 0.182945 0.376799 0.103333 0.147195
vn -0.0709155 -0.927701 0.366526
v -0.000434808 -0.00257875 0.157495 0.376799 0.103333 0.147195
vn 0.055776 -0.998213 0.0214578
v -0.00555934 -0.00147085 0.0567821 0.376799 0.103333 0.147195
vn -0.87521 -0.483185 0.0232162
v -0.00633874 -0.00248241 0.00281264 0.376799 0.103333 0.147195
vn -0.836113 -0.54833 0.0158127
v -0.00312374 -0.000218445 0.166543 0.376799 0.103333 0.147195
vn -0.88016 -0.465818 0.0912795
v -0.00707918 -0.00311825 -0.0892999 0.376799 0.103333 0.147195
vn -0.645542 -0.763707 0.00524721
v -0.00733248 -0.0027907 -0.110146 0.376799 0.103333 0.147195
vn -0.988223 -0.152715 -0.00965041
v -0.009242 0.0125079 -0.115102 0.376799 0.103333 0.147195
vn -0.480144 0.877117 -0.0112852
v 0.00120192 0.0142613 -0.13566 0.376799 0.103333 0.147195
vn -0.317593 0.438858 -0.840558
v 0.00755401 0.00245978 -0.136044 0.376799 0.103333 0.147195
vn -0.0663197 -0.190855 -0.979375
v 0.052155 0.00656383 -0.13761 0.376799 0.103333 0.147195
vn 0.125927 -0.845334 -0.519184
v 0.160374 0.0255523 -0.140264 0.376799 0.103333 0.147195
vn 0.145047 -0.833935 -0.53246
v 0.184243 0.0292517 -0.115549 0.376799 0.103333 0.147195
vn 0.184928 -0.982617 -0.0163235
v 0.18512 0.0301717 -0.131536 0.376799 0.103333 0.147195
vn 0.979028 -0.142961 -0.145144
v 0.17415 0.0303788 -0.139369 0.376799 0.103333 0.147195
vn 0.23974 0.0117614 -0.970766
v 0.159575 0.0415494 -0.137706 0.376799 0.103333 0.147195
vn -0.167879 0.98554 -0.0229488
v -0.00532553 0.0133027 0.128145 0.376799 0.103333 0.147195
vn -0.485513 0.874204 0.00662213
v -0.00477996 0.0134762 0.144994 0.376799 0.103333 0.147195
vn -0.768297 0.639775 0.0201922
v -0.00368879 0.0136255 0.180196 0.376799 0.103333 0.147195
vn -0.950791 0.0955254 0.294738
v 0.0323194 0.0197093 -0.136587 0.376799 0.103333 0.147195
vn -0.170819 0.982234 -0.0776936
v -0.00828724 0.00117365 -0.0198238 0.376799 0.103333 0.147195
vn -0.995631 -0.0921957 0.0147914
v -0.00388365 -0.00011729 0.144738 0.376799 0.103333 0.147195
vn -0.987369 -0.15626 0.0261889
v -0.00468252 0.00958406 0.155801 0.376799 0.103333 0.147195
vn -0.996766 -0.0753438 0.0279496
v -0.00606595 0.0130378 0.0992735 0.376799 0.103333 0.147195
vn -0.999578 0.0235071 0.0170773
v -0.00565678 0.0131968 0.117594 0.376799 0.103333 0.147195
vn -0.947354 0.319399 0.0224551
v 0.137265 0.0363133 -0.138506 0.376799 0.103333 0.147195
vn -0.0293534 0.12019 -0.992317
v 0.10983 0.0322141 -0.137962 0.376799 0.103333 0.147195
vn -0.0882196 0.469005 -0.878779
v 0.0958792 0.0303259 -0.137546 0.376799 0.103333 0.147195
vn -0.118362 0.651257 -0.74957
v -0.00483841 0.0130667 0.144994 0.376799 0.103333 0.147195
vn -0.997847 0.057807 0.0309729
f 1//1 2//2 3//3
f 1//1 3//3 4//4
f 1//1 4//4 5//5
f 1//1 5//5 6//6
f 1//1 6//6 7//7
f 1//1 7//7 8//8
f 1//1 8//8 9//9
f 1//1 9//9 10//10
f 1//1 10//10 11//11
f 1//1 11//11 12//12
f 1//1 12//12 13//13
f 1//1 13//13 2//2
f 2//2 14//14 15//15
f 2//2 15//15 3//3
f 2//2 13//13 14//14
f 3//3 15//15 16//16
f 3//3 16//16 4//4
f 4//4 16//16 17//17
f 4//4 17//17 5//5
f 5//5 17//17 18//18
f 5//5 18//18 6//6
f 6//6 18//18 19//19
f 6//6 19//19 7//7
f 7//7 19//19 8//8
f 8//8 20//20 21//21
f 8//8 21//21 22//22
f 8//8 22//22 23//23
f 8//8 23//23 24//24
f 8//8 24//24 9//9
f 8//8 19//19 25//25
f 8//8 25//25 20//20
f 9//9 24//24 26//26
f 9//9 26//26 10//10
f 10//10 26//26 27//27
f 10//10 27//27 12//12
f 10//10 12//12 11//11
f 12//12 27//27 28//28
f 12//12 28//28 29//29
f 12//12 29//29 13//13
f 13//13 29//29 30//30
f 13//13 30//30 31//31
f 13//13 31//31 14//14
f 14//14 31//31 32//32
f 14//14 32//32 33//33
f 14//14 33//33 34//34
f 14//14 34//34 15//15
f 15//15 34//34 16//16
f 16//16 34//34 33//33
f 16//16 33//33 17//17
f 17//17 33//33 35//35
f 17//17 35//35 19//19
f 17//17 19//19 18//18
f 19//19 35//35 36//36
f 19//19 36//36 25//25
f 20//20 37//37 38//38
f 20//20 38//38 21//21
f 20//20 25//25 36//36
f 20//20 36//36 39//39
f 20//20 39//39 37//37
f 21//21 38//38 40//40
f 21//21 40//40 22//22
f 22//22 40//40 23//23
f 23//23 41//41 42//42
f 23//23 42//42 43//43
f 23//23 43//43 44//44
f 23//23 44//44 45//45
f 23//23 45//45 24//24
f 23//23 40//40 41//41
f 24//24 45//45 46//46
f 24//24 46//46 47//47
f 24//24 47//47 26//26
f 26//26 47//47 27//27
f 27//27 47//47 48//48
f 27//27 48//48 28//28
f 28//28 30//30 29//29
f 28//28 48//48 30//30
f 30//30 48//48 31//31
f 31//31 48//48 49//49
f 31//31 49//49 50//50
f 31//31 50//50 32//32
f 32//32 51//51 52//52
f 32//32 52//52 53//53
f 32//32 53//53 33//33
f 32//32 50//50 54//54
f 32//32 54//54 42//42
f 32//32 42//42 51//51
f 33//33 53//53 35//35
f 35//35 53//53 39//39
f 35//35 39//39 36//36
f 37//37 55//55 38//38
f 37//37 39//39 56//56
f 37//37 56//56 55//55
f 38//38 55//55 40//40
f 39//39 57//57 56//56
f 39//39 53//53 57//57
f 40//40 55//55 41//41
f 41//41 55//55 42//42
f 42//42 54//54 43//43
f 42//42 55//55 58//58
f 42//42 58//58 59//59
f 42//42 59//59 51//51
f 43//43 54//54 45//45
f 43//43 45//45 44//44
f 45//45 54//54 46//46
f 46//46 54//54 60//60
f 46//46 60//60 50//50
f 46//46 50//50 49//49
f 46//46 49//49 48//48
f 46//46 48//48 47//47
f 50//50 60//60 61//61
f 50//50 61//61 62//62
f 50//50 62//62 54//54
f 51//51 59//59 63//63
f 51//51 63//63 53//53
f 51//51 53//53 52//52
f 53//53 63//63 57//57
f 54//54 62//62 61//61
f 54//54 61//61 60//60
f 55//55 56//56 57//57
f 55//55 57//57 58//58
f 57//57 63//63 59//59
f 57//57 59//59 58//58
