# Created by Open3D 
# object name: top_watertight_tiny_part0
# number of vertices: 64
# number of triangles: 124
v 0.190487 0.0174448 0.17424 0.259952 0.0498331 0.742968
vn 0.995276 0.0150707 0.0959083
v 0.186945 0.0260816 0.179609 0.259952 0.0498331 0.742968
vn -0.136075 0.990669 0.00770444
v 0.183115 0.0156112 0.181864 0.259952 0.0498331 0.742968
vn 0.354872 -0.772257 0.526958
v 0.190162 0.016171 0.16239 0.259952 0.0498331 0.742968
vn 0.170201 -0.985315 0.0136407
v 0.190334 0.0160858 0.136467 0.259952 0.0498331 0.742968
vn 0.195063 -0.980788 0.00251152
v 0.190104 0.0175949 0.0923727 0.259952 0.0498331 0.742968
vn 0.997123 0.0755567 -0.0061545
v 0.189913 0.0230552 0.149937 0.259952 0.0498331 0.742968
vn 0.986894 0.161322 -0.00398446
v 0.188228 0.0255258 0.167187 0.259952 0.0498331 0.742968
vn 0.883709 0.465835 0.0453428
v 0.173656 0.0239031 0.182976 0.259952 0.0498331 0.742968
vn -0.143943 0.981457 0.126581
v 0.189032 0.0253229 0.115119 0.259952 0.0498331 0.742968
vn 0.624011 0.781415 -0.00122572
v 0.186466 0.0264223 -0.111104 0.259952 0.0498331 0.742968
vn 0.120429 0.992722 0.000252304
v 0.180569 0.0264142 -0.138806 0.259952 0.0498331 0.742968
vn -0.147664 0.989032 -0.00329681
v 0.000805102 -0.00166642 0.115182 0.259952 0.0498331 0.742968
vn -0.162843 0.98663 0.00651982
v 0.173177 0.0145767 0.183326 0.259952 0.0498331 0.742968
vn 0.0207347 -0.0247031 0.99948
v 0.163182 0.0121508 0.182913 0.259952 0.0498331 0.742968
vn 0.166248 -0.976202 0.139251
v 0.0956271 0.00079601 0.182087 0.259952 0.0498331 0.742968
vn 0.165147 -0.985978 0.0239639
v 0.0257169 -0.0108508 0.183866 0.259952 0.0498331 0.742968
vn 0.16071 -0.986962 0.00883163
v 0.183096 0.0147836 0.0841764 0.259952 0.0498331 0.742968
vn 0.161798 -0.986823 0.00112029
v 0.188496 0.0157004 0.0624786 0.259952 0.0498331 0.742968
vn 0.159099 -0.987254 -0.00405184
v 0.189377 0.0158748 0.0851295 0.259952 0.0498331 0.742968
vn 0.357988 -0.933716 -0.00440003
v 0.189147 0.0160452 0.042274 0.259952 0.0498331 0.742968
vn 0.525448 -0.850799 -0.00669033
v 0.189147 0.0168241 -0.0536347 0.259952 0.0498331 0.742968
vn 0.173218 -0.984813 -0.0117836
v 0.188898 0.0172663 -0.0844818 0.259952 0.0498331 0.742968
vn 0.447805 -0.893891 -0.0207245
v 0.188132 0.022678 -0.10043 0.259952 0.0498331 0.742968
vn 0.988323 0.152142 -0.00839758
v 0.187864 0.0256272 -0.0580188 0.259952 0.0498331 0.742968
vn 0.966436 0.256807 -0.00718637
v 0.188783 0.0253311 0.138659 0.259952 0.0498331 0.742968
vn 0.861115 0.508284 0.0113203
v 0.134594 0.0176841 0.183326 0.259952 0.0498331 0.742968
vn -0.158851 0.986478 0.0403302
v 0.151731 0.020252 0.183326 0.259952 0.0498331 0.742968
vn 0.00453966 0.0563667 0.9984
v 0.187022 0.0261505 -0.12829 0.259952 0.0498331 0.742968
vn 0.851598 0.518782 -0.0751381
v 0.187156 0.0182845 -0.133786 0.259952 0.0498331 0.742968
vn 0.25395 -0.963473 -0.0850198
v 0.17852 0.0171568 -0.139092 0.259952 0.0498331 0.742968
vn 0.194408 -0.836065 -0.513031
v 0.162301 0.0189539 -0.139409 0.259952 0.0498331 0.742968
vn 0.0082353 -0.0174762 -0.999813
v 0.134498 0.0189782 -0.139505 0.259952 0.0498331 0.742968
vn -0.159585 0.975194 -0.153395
v -0.0035224 -0.00259541 -0.071425 0.259952 0.0498331 0.742968
vn -0.171148 0.985237 -0.00406955
v -0.00294795 -0.00672921 0.15 0.259952 0.0498331 0.742968
vn -0.995469 0.0930593 0.0195422
v -0.00105228 -0.00539455 0.171158 0.259952 0.0498331 0.742968
vn -0.731037 0.669588 0.131288
v 0.00586023 -0.00370289 0.183611 0.259952 0.0498331 0.742968
vn -0.30172 0.927901 0.21901
v 0.0243574 -0.000648182 0.185041 0.259952 0.0498331 0.742968
vn -0.14633 0.877005 0.457656
v 0.0936357 0.0109824 0.183834 0.259952 0.0498331 0.742968
vn -0.163295 0.985738 0.040686
v -0.00388621 -0.00455886 0.00964785 0.259952 0.0498331 0.742968
vn -0.763407 0.645766 0.0140363
v 0.0399249 -0.00746347 0.18466 0.259952 0.0498331 0.742968
vn 0.0242757 -0.141085 0.9897
v 0.0079091 -0.0129522 0.183389 0.259952 0.0498331 0.742968
vn -0.0966297 -0.252773 0.962688
v 2.00301e-05 -0.0147696 0.177639 0.259952 0.0498331 0.742968
vn -0.536943 -0.816929 0.21052
v -0.000592714 -0.0150211 0.154639 0.259952 0.0498331 0.742968
vn 0.151046 -0.988501 -0.00712187
v 0.188745 0.0160331 0.0183524 0.259952 0.0498331 0.742968
vn 0.15672 -0.987607 -0.00839802
v -0.00222031 -0.0130293 -0.113772 0.259952 0.0498331 0.742968
vn 0.149656 -0.988689 -0.00984996
v 0.0621752 -0.00242908 -0.135597 0.259952 0.0498331 0.742968
vn 0.160123 -0.986927 -0.0183227
v 0.188553 0.0180006 -0.117203 0.259952 0.0498331 0.742968
vn 0.239036 -0.970592 -0.0285011
v 0.0738747 -0.000421006 -0.1369 0.259952 0.0498331 0.742968
vn 0.161227 -0.981426 -0.103965
v 0.148783 0.0124429 -0.138996 0.259952 0.0498331 0.742968
vn 0.0210395 -0.172187 -0.984839
v 0.0424333 -0.0052769 -0.137535 0.259952 0.0498331 0.742968
vn 0.0968021 -0.657391 -0.747306
v 0.125805 0.0134043 -0.139155 0.259952 0.0498331 0.742968
vn 0.000243357 -0.06576 -0.997835
v 0.061505 0.0013031 -0.138234 0.259952 0.0498331 0.742968
vn -0.00294374 -0.0608952 -0.99814
v 0.0231511 -0.00662779 -0.13763 0.259952 0.0498331 0.742968
vn -0.0046568 -0.0710565 -0.997461
v 0.01306 -0.000753657 -0.137789 0.259952 0.0498331 0.742968
vn -0.186437 0.971293 -0.147752
v -0.00486277 -0.00424244 -0.10996 0.259952 0.0498331 0.742968
vn -0.826961 0.558206 -0.0673929
v -0.00513085 -0.00502538 -0.0531264 0.259952 0.0498331 0.742968
vn -0.9816 -0.190876 0.00519825
v -0.00105228 -0.0146479 0.135133 0.259952 0.0498331 0.742968
vn -0.955382 -0.295302 0.00638991
v -0.000956528 -0.0147696 0.121917 0.259952 0.0498331 0.742968
vn -0.338089 -0.941103 -0.00453346
v -0.00252668 -0.0131388 -0.0918839 0.259952 0.0498331 0.742968
vn -0.937252 -0.348651 7.10501e-05
v -0.00333091 -0.00808415 -0.130832 0.259952 0.0498331 0.742968
vn -0.867559 0.291386 -0.403033
v 0.00528578 -0.0112443 -0.136868 0.259952 0.0498331 0.742968
vn -0.0905436 -0.854927 -0.510786
v 0.0207193 -0.00906993 -0.135057 0.259952 0.0498331 0.742968
vn 0.153755 -0.987574 -0.0325001
v 0.116403 0.00735573 -0.138742 0.259952 0.0498331 0.742968
vn 0.00665228 -0.115234 -0.993316
f 1//1 2//2 3//3
f 1//1 3//3 4//4
f 1//1 4//4 5//5
f 1//1 5//5 6//6
f 1//1 6//6 7//7
f 1//1 7//7 8//8
f 1//1 8//8 2//2
f 2//2 9//9 3//3
f 2//2 8//8 10//10
f 2//2 10//10 11//11
f 2//2 11//11 12//12
f 2//2 12//12 13//13
f 2//2 13//13 9//9
f 3//3 9//9 14//14
f 3//3 14//14 15//15
f 3//3 15//15 4//4
f 4//4 15//15 16//16
f 4//4 16//16 17//17
f 4//4 17//17 5//5
f 5//5 18//18 19//19
f 5//5 19//19 20//20
f 5//5 20//20 21//21
f 5//5 21//21 22//22
f 5//5 22//22 6//6
f 5//5 17//17 18//18
f 6//6 22//22 23//23
f 6//6 23//23 7//7
f 7//7 23//23 24//24
f 7//7 24//24 25//25
f 7//7 25//25 10//10
f 7//7 10//10 26//26
f 7//7 26//26 8//8
f 8//8 26//26 10//10
f 9//9 13//13 27//27
f 9//9 27//27 28//28
f 9//9 28//28 14//14
f 10//10 25//25 29//29
f 10//10 29//29 11//11
f 11//11 29//29 12//12
f 12//12 29//29 30//30
f 12//12 30//30 31//31
f 12//12 31//31 32//32
f 12//12 32//32 33//33
f 12//12 33//33 34//34
f 12//12 34//34 13//13
f 13//13 35//35 36//36
f 13//13 36//36 37//37
f 13//13 37//37 38//38
f 13//13 38//38 39//39
f 13//13 39//39 27//27
f 13//13 34//34 40//40
f 13//13 40//40 35//35
f 14//14 28//28 38//38
f 14//14 38//38 41//41
f 14//14 41//41 15//15
f 15//15 41//41 17//17
f 15//15 17//17 16//16
f 17//17 41//41 42//42
f 17//17 42//42 43//43
f 17//17 43//43 44//44
f 17//17 44//44 19//19
f 17//17 19//19 18//18
f 19//19 44//44 45//45
f 19//19 45//45 20//20
f 20//20 45//45 21//21
f 21//21 45//45 22//22
f 22//22 45//45 46//46
f 22//22 46//46 47//47
f 22//22 47//47 23//23
f 23//23 48//48 24//24
f 23//23 47//47 48//48
f 24//24 48//48 29//29
f 24//24 29//29 25//25
f 27//27 39//39 38//38
f 27//27 38//38 28//28
f 29//29 48//48 30//30
f 30//30 47//47 49//49
f 30//30 49//49 31//31
f 30//30 48//48 47//47
f 31//31 50//50 32//32
f 31//31 49//49 51//51
f 31//31 51//51 50//50
f 32//32 50//50 52//52
f 32//32 52//52 33//33
f 33//33 53//53 54//54
f 33//33 54//54 55//55
f 33//33 55//55 34//34
f 33//33 52//52 53//53
f 34//34 55//55 56//56
f 34//34 56//56 57//57
f 34//34 57//57 40//40
f 35//35 58//58 44//44
f 35//35 44//44 43//43
f 35//35 43//43 36//36
f 35//35 40//40 57//57
f 35//35 57//57 58//58
f 36//36 43//43 37//37
f 37//37 43//43 42//42
f 37//37 42//42 38//38
f 38//38 42//42 41//41
f 44//44 58//58 59//59
f 44//44 59//59 46//46
f 44//44 46//46 45//45
f 46//46 59//59 60//60
f 46//46 60//60 56//56
f 46//46 56//56 61//61
f 46//46 61//61 62//62
f 46//46 62//62 63//63
f 46//46 63//63 47//47
f 47//47 63//63 49//49
f 49//49 63//63 62//62
f 49//49 62//62 51//51
f 50//50 64//64 52//52
f 50//50 51//51 64//64
f 51//51 62//62 54//54
f 51//51 54//54 64//64
f 52//52 64//64 53//53
f 53//53 64//64 54//54
f 54//54 62//62 55//55
f 55//55 62//62 61//61
f 55//55 61//61 56//56
f 56//56 60//60 57//57
f 57//57 60//60 58//58
f 58//58 60//60 59//59
